<mxfile host="app.diagrams.net" modified="2021-12-01T13:44:48.524Z" agent="5.0 (Windows NT 10.0; Win64; x64) AppleWebKit/537.36 (KHTML, like Gecko) Chrome/96.0.4664.45 Safari/537.36" etag="-bCzRRTPf5xsUnn50ap3" version="15.8.8" type="github">
  <diagram id="dsJ7s2vMgQMwFVYu8buw" name="Page-1">
    <mxGraphModel dx="1673" dy="896" grid="1" gridSize="10" guides="1" tooltips="1" connect="1" arrows="1" fold="1" page="1" pageScale="1" pageWidth="827" pageHeight="1169" math="0" shadow="0">
      <root>
        <mxCell id="0" />
        <mxCell id="1" parent="0" />
        <mxCell id="uWJtjKGiHwzr4gWqTYHl-3" style="edgeStyle=orthogonalEdgeStyle;rounded=0;orthogonalLoop=1;jettySize=auto;html=1;exitX=1;exitY=0.5;exitDx=0;exitDy=0;entryX=0;entryY=0.5;entryDx=0;entryDy=0;endArrow=none;endFill=0;" parent="1" source="gx2fqg2UMWbFpVax5CwM-1" target="gx2fqg2UMWbFpVax5CwM-11" edge="1">
          <mxGeometry relative="1" as="geometry" />
        </mxCell>
        <mxCell id="jzE8oIi-crpwVp-MOxEN-11" style="rounded=0;orthogonalLoop=1;jettySize=auto;html=1;exitX=0.5;exitY=0;exitDx=0;exitDy=0;fontColor=#000000;endArrow=oval;endFill=0;" parent="1" source="gx2fqg2UMWbFpVax5CwM-1" target="jzE8oIi-crpwVp-MOxEN-12" edge="1">
          <mxGeometry relative="1" as="geometry">
            <mxPoint x="463.95238095238096" y="650" as="targetPoint" />
          </mxGeometry>
        </mxCell>
        <mxCell id="gx2fqg2UMWbFpVax5CwM-1" value="&lt;b&gt;CLIENTE&lt;/b&gt;" style="whiteSpace=wrap;html=1;align=center;fontColor=#000000;" parent="1" vertex="1">
          <mxGeometry x="414" y="690" width="100" height="40" as="geometry" />
        </mxCell>
        <mxCell id="uWJtjKGiHwzr4gWqTYHl-6" style="edgeStyle=orthogonalEdgeStyle;rounded=0;orthogonalLoop=1;jettySize=auto;html=1;exitX=1;exitY=0.5;exitDx=0;exitDy=0;entryX=0;entryY=0.5;entryDx=0;entryDy=0;endArrow=none;endFill=0;" parent="1" source="gx2fqg2UMWbFpVax5CwM-2" target="gx2fqg2UMWbFpVax5CwM-18" edge="1">
          <mxGeometry relative="1" as="geometry" />
        </mxCell>
        <mxCell id="uWJtjKGiHwzr4gWqTYHl-18" style="edgeStyle=orthogonalEdgeStyle;rounded=0;orthogonalLoop=1;jettySize=auto;html=1;exitX=0.25;exitY=0;exitDx=0;exitDy=0;entryX=0.5;entryY=1;entryDx=0;entryDy=0;endArrow=none;endFill=0;" parent="1" source="gx2fqg2UMWbFpVax5CwM-2" target="FtTrVJw0tq06EMOVsZJ_-155" edge="1">
          <mxGeometry relative="1" as="geometry">
            <Array as="points">
              <mxPoint x="806" y="570" />
              <mxPoint x="731" y="570" />
            </Array>
          </mxGeometry>
        </mxCell>
        <mxCell id="uWJtjKGiHwzr4gWqTYHl-19" style="edgeStyle=orthogonalEdgeStyle;rounded=0;orthogonalLoop=1;jettySize=auto;html=1;exitX=0.75;exitY=0;exitDx=0;exitDy=0;entryX=0.5;entryY=1;entryDx=0;entryDy=0;endArrow=none;endFill=0;" parent="1" source="gx2fqg2UMWbFpVax5CwM-2" target="FtTrVJw0tq06EMOVsZJ_-159" edge="1">
          <mxGeometry relative="1" as="geometry">
            <Array as="points">
              <mxPoint x="856" y="570" />
              <mxPoint x="941" y="570" />
            </Array>
          </mxGeometry>
        </mxCell>
        <mxCell id="uWJtjKGiHwzr4gWqTYHl-37" style="rounded=0;orthogonalLoop=1;jettySize=auto;html=1;exitX=1;exitY=0;exitDx=0;exitDy=0;fontSize=11;endArrow=oval;endFill=0;entryX=0.5;entryY=1;entryDx=0;entryDy=0;" parent="1" source="gx2fqg2UMWbFpVax5CwM-2" target="uWJtjKGiHwzr4gWqTYHl-38" edge="1">
          <mxGeometry relative="1" as="geometry">
            <mxPoint x="910" y="650" as="targetPoint" />
          </mxGeometry>
        </mxCell>
        <mxCell id="uWJtjKGiHwzr4gWqTYHl-89" style="edgeStyle=none;rounded=0;orthogonalLoop=1;jettySize=auto;html=1;exitX=0;exitY=0;exitDx=0;exitDy=0;fontSize=9;endArrow=oval;endFill=0;" parent="1" source="gx2fqg2UMWbFpVax5CwM-2" target="uWJtjKGiHwzr4gWqTYHl-90" edge="1">
          <mxGeometry relative="1" as="geometry">
            <mxPoint x="760" y="660" as="targetPoint" />
          </mxGeometry>
        </mxCell>
        <mxCell id="uWJtjKGiHwzr4gWqTYHl-91" style="edgeStyle=none;rounded=0;orthogonalLoop=1;jettySize=auto;html=1;exitX=0;exitY=1;exitDx=0;exitDy=0;fontSize=9;endArrow=oval;endFill=1;" parent="1" source="gx2fqg2UMWbFpVax5CwM-2" target="uWJtjKGiHwzr4gWqTYHl-92" edge="1">
          <mxGeometry relative="1" as="geometry">
            <mxPoint x="750" y="730" as="targetPoint" />
          </mxGeometry>
        </mxCell>
        <mxCell id="uWJtjKGiHwzr4gWqTYHl-93" style="edgeStyle=none;rounded=0;orthogonalLoop=1;jettySize=auto;html=1;exitX=0.25;exitY=1;exitDx=0;exitDy=0;fontSize=9;endArrow=oval;endFill=0;" parent="1" source="gx2fqg2UMWbFpVax5CwM-2" target="uWJtjKGiHwzr4gWqTYHl-94" edge="1">
          <mxGeometry relative="1" as="geometry">
            <mxPoint x="770" y="760" as="targetPoint" />
          </mxGeometry>
        </mxCell>
        <mxCell id="uWJtjKGiHwzr4gWqTYHl-95" style="edgeStyle=none;rounded=0;orthogonalLoop=1;jettySize=auto;html=1;exitX=0.75;exitY=1;exitDx=0;exitDy=0;fontSize=9;endArrow=oval;endFill=0;" parent="1" source="gx2fqg2UMWbFpVax5CwM-2" target="uWJtjKGiHwzr4gWqTYHl-96" edge="1">
          <mxGeometry relative="1" as="geometry">
            <mxPoint x="880" y="760" as="targetPoint" />
          </mxGeometry>
        </mxCell>
        <mxCell id="uWJtjKGiHwzr4gWqTYHl-97" style="edgeStyle=none;rounded=0;orthogonalLoop=1;jettySize=auto;html=1;exitX=1;exitY=1;exitDx=0;exitDy=0;fontSize=9;endArrow=oval;endFill=0;" parent="1" source="gx2fqg2UMWbFpVax5CwM-2" target="uWJtjKGiHwzr4gWqTYHl-98" edge="1">
          <mxGeometry relative="1" as="geometry">
            <mxPoint x="910" y="750" as="targetPoint" />
          </mxGeometry>
        </mxCell>
        <mxCell id="uWJtjKGiHwzr4gWqTYHl-115" style="edgeStyle=none;rounded=0;orthogonalLoop=1;jettySize=auto;html=1;exitX=0.5;exitY=0;exitDx=0;exitDy=0;fontSize=9;endArrow=oval;endFill=0;" parent="1" source="gx2fqg2UMWbFpVax5CwM-2" target="uWJtjKGiHwzr4gWqTYHl-116" edge="1">
          <mxGeometry relative="1" as="geometry">
            <mxPoint x="831.1111111111111" y="660" as="targetPoint" />
          </mxGeometry>
        </mxCell>
        <mxCell id="gx2fqg2UMWbFpVax5CwM-2" value="&lt;b&gt;MACCHINARIO&lt;/b&gt;" style="whiteSpace=wrap;html=1;align=center;" parent="1" vertex="1">
          <mxGeometry x="781" y="690" width="100" height="40" as="geometry" />
        </mxCell>
        <mxCell id="uWJtjKGiHwzr4gWqTYHl-8" style="edgeStyle=orthogonalEdgeStyle;rounded=0;orthogonalLoop=1;jettySize=auto;html=1;exitX=0.5;exitY=0;exitDx=0;exitDy=0;entryX=0.5;entryY=1;entryDx=0;entryDy=0;endArrow=none;endFill=0;" parent="1" source="gx2fqg2UMWbFpVax5CwM-3" target="gx2fqg2UMWbFpVax5CwM-14" edge="1">
          <mxGeometry relative="1" as="geometry" />
        </mxCell>
        <mxCell id="uWJtjKGiHwzr4gWqTYHl-99" style="edgeStyle=none;rounded=0;orthogonalLoop=1;jettySize=auto;html=1;exitX=1;exitY=0;exitDx=0;exitDy=0;fontSize=9;endArrow=oval;endFill=1;" parent="1" source="gx2fqg2UMWbFpVax5CwM-3" target="uWJtjKGiHwzr4gWqTYHl-100" edge="1">
          <mxGeometry relative="1" as="geometry">
            <mxPoint x="910" y="910" as="targetPoint" />
          </mxGeometry>
        </mxCell>
        <mxCell id="uWJtjKGiHwzr4gWqTYHl-101" style="edgeStyle=none;rounded=0;orthogonalLoop=1;jettySize=auto;html=1;exitX=0;exitY=0;exitDx=0;exitDy=0;fontSize=9;endArrow=oval;endFill=0;" parent="1" source="gx2fqg2UMWbFpVax5CwM-3" target="uWJtjKGiHwzr4gWqTYHl-102" edge="1">
          <mxGeometry relative="1" as="geometry">
            <mxPoint x="760" y="920" as="targetPoint" />
          </mxGeometry>
        </mxCell>
        <mxCell id="gx2fqg2UMWbFpVax5CwM-3" value="&lt;b&gt;CATEGORIA&lt;/b&gt;" style="whiteSpace=wrap;html=1;align=center;" parent="1" vertex="1">
          <mxGeometry x="781" y="940" width="100" height="40" as="geometry" />
        </mxCell>
        <mxCell id="uWJtjKGiHwzr4gWqTYHl-85" style="edgeStyle=none;rounded=0;orthogonalLoop=1;jettySize=auto;html=1;exitX=1;exitY=0;exitDx=0;exitDy=0;fontSize=9;endArrow=oval;endFill=0;" parent="1" source="gx2fqg2UMWbFpVax5CwM-5" target="uWJtjKGiHwzr4gWqTYHl-86" edge="1">
          <mxGeometry relative="1" as="geometry">
            <mxPoint x="1020" y="380.0000000000001" as="targetPoint" />
          </mxGeometry>
        </mxCell>
        <mxCell id="uWJtjKGiHwzr4gWqTYHl-87" style="edgeStyle=none;rounded=0;orthogonalLoop=1;jettySize=auto;html=1;exitX=1;exitY=0.5;exitDx=0;exitDy=0;fontSize=9;endArrow=oval;endFill=1;" parent="1" source="gx2fqg2UMWbFpVax5CwM-5" target="uWJtjKGiHwzr4gWqTYHl-88" edge="1">
          <mxGeometry relative="1" as="geometry">
            <mxPoint x="1020" y="409.94444444444446" as="targetPoint" />
          </mxGeometry>
        </mxCell>
        <mxCell id="gx2fqg2UMWbFpVax5CwM-5" value="&lt;b&gt;PROGETTO&lt;/b&gt;" style="whiteSpace=wrap;html=1;align=center;" parent="1" vertex="1">
          <mxGeometry x="891" y="390" width="100" height="40" as="geometry" />
        </mxCell>
        <mxCell id="uWJtjKGiHwzr4gWqTYHl-26" style="edgeStyle=orthogonalEdgeStyle;rounded=0;orthogonalLoop=1;jettySize=auto;html=1;exitX=0.5;exitY=1;exitDx=0;exitDy=0;entryX=0.5;entryY=0;entryDx=0;entryDy=0;endArrow=none;endFill=0;" parent="1" source="gx2fqg2UMWbFpVax5CwM-6" target="FtTrVJw0tq06EMOVsZJ_-156" edge="1">
          <mxGeometry relative="1" as="geometry" />
        </mxCell>
        <mxCell id="uWJtjKGiHwzr4gWqTYHl-31" style="edgeStyle=orthogonalEdgeStyle;rounded=0;orthogonalLoop=1;jettySize=auto;html=1;exitX=1;exitY=0.5;exitDx=0;exitDy=0;endArrow=none;endFill=0;" parent="1" source="gx2fqg2UMWbFpVax5CwM-6" target="gx2fqg2UMWbFpVax5CwM-17" edge="1">
          <mxGeometry relative="1" as="geometry" />
        </mxCell>
        <mxCell id="uWJtjKGiHwzr4gWqTYHl-49" style="edgeStyle=none;rounded=0;orthogonalLoop=1;jettySize=auto;html=1;exitX=0;exitY=0.25;exitDx=0;exitDy=0;fontSize=9;endArrow=none;endFill=0;entryX=1;entryY=0.5;entryDx=0;entryDy=0;" parent="1" source="gx2fqg2UMWbFpVax5CwM-6" target="uWJtjKGiHwzr4gWqTYHl-51" edge="1">
          <mxGeometry relative="1" as="geometry">
            <mxPoint x="670" y="189.94444444444446" as="targetPoint" />
          </mxGeometry>
        </mxCell>
        <mxCell id="uWJtjKGiHwzr4gWqTYHl-54" style="edgeStyle=none;rounded=0;orthogonalLoop=1;jettySize=auto;html=1;exitX=0;exitY=0.75;exitDx=0;exitDy=0;fontSize=9;endArrow=none;endFill=0;" parent="1" source="gx2fqg2UMWbFpVax5CwM-6" target="uWJtjKGiHwzr4gWqTYHl-55" edge="1">
          <mxGeometry relative="1" as="geometry">
            <mxPoint x="620" y="220" as="targetPoint" />
          </mxGeometry>
        </mxCell>
        <mxCell id="uWJtjKGiHwzr4gWqTYHl-66" style="edgeStyle=none;rounded=0;orthogonalLoop=1;jettySize=auto;html=1;exitX=1;exitY=0;exitDx=0;exitDy=0;fontSize=9;endArrow=oval;endFill=0;" parent="1" source="gx2fqg2UMWbFpVax5CwM-6" target="uWJtjKGiHwzr4gWqTYHl-67" edge="1">
          <mxGeometry relative="1" as="geometry">
            <mxPoint x="810" y="160" as="targetPoint" />
          </mxGeometry>
        </mxCell>
        <mxCell id="rHscnQnr_pqCsqy7i4I7-1" style="rounded=0;orthogonalLoop=1;jettySize=auto;html=1;exitX=1;exitY=1;exitDx=0;exitDy=0;endArrow=oval;endFill=1;" parent="1" source="gx2fqg2UMWbFpVax5CwM-6" edge="1">
          <mxGeometry relative="1" as="geometry">
            <mxPoint x="770.75" y="215" as="targetPoint" />
          </mxGeometry>
        </mxCell>
        <mxCell id="rHscnQnr_pqCsqy7i4I7-5" style="rounded=0;sketch=0;orthogonalLoop=1;jettySize=auto;html=1;exitX=1;exitY=1;exitDx=0;exitDy=0;fontSize=9;endArrow=oval;endFill=1;" parent="1" source="gx2fqg2UMWbFpVax5CwM-6" target="rHscnQnr_pqCsqy7i4I7-6" edge="1">
          <mxGeometry relative="1" as="geometry">
            <mxPoint x="800" y="230" as="targetPoint" />
          </mxGeometry>
        </mxCell>
        <mxCell id="PqE2YzjYnUWBGZX2AW_H-1" style="edgeStyle=orthogonalEdgeStyle;rounded=0;orthogonalLoop=1;jettySize=auto;html=1;exitX=0.25;exitY=0;exitDx=0;exitDy=0;endArrow=oval;endFill=0;" edge="1" parent="1" source="gx2fqg2UMWbFpVax5CwM-6" target="PqE2YzjYnUWBGZX2AW_H-2">
          <mxGeometry relative="1" as="geometry">
            <mxPoint x="670" y="150" as="targetPoint" />
          </mxGeometry>
        </mxCell>
        <mxCell id="gx2fqg2UMWbFpVax5CwM-6" value="&lt;b&gt;DIPENDENTE&lt;/b&gt;" style="whiteSpace=wrap;html=1;align=center;" parent="1" vertex="1">
          <mxGeometry x="680.5" y="180" width="100" height="40" as="geometry" />
        </mxCell>
        <mxCell id="uWJtjKGiHwzr4gWqTYHl-28" style="edgeStyle=orthogonalEdgeStyle;rounded=0;orthogonalLoop=1;jettySize=auto;html=1;exitX=0.5;exitY=1;exitDx=0;exitDy=0;entryX=0.015;entryY=0.616;entryDx=0;entryDy=0;entryPerimeter=0;endArrow=none;endFill=0;" parent="1" source="gx2fqg2UMWbFpVax5CwM-7" target="uWJtjKGiHwzr4gWqTYHl-27" edge="1">
          <mxGeometry relative="1" as="geometry" />
        </mxCell>
        <mxCell id="uWJtjKGiHwzr4gWqTYHl-45" style="edgeStyle=none;rounded=0;orthogonalLoop=1;jettySize=auto;html=1;exitX=0.5;exitY=0;exitDx=0;exitDy=0;fontSize=9;endArrow=oval;endFill=0;" parent="1" source="gx2fqg2UMWbFpVax5CwM-7" target="uWJtjKGiHwzr4gWqTYHl-46" edge="1">
          <mxGeometry relative="1" as="geometry">
            <mxPoint x="630.5555555555554" y="40" as="targetPoint" />
          </mxGeometry>
        </mxCell>
        <mxCell id="uWJtjKGiHwzr4gWqTYHl-47" style="edgeStyle=none;rounded=0;orthogonalLoop=1;jettySize=auto;html=1;exitX=0;exitY=0.5;exitDx=0;exitDy=0;fontSize=9;endArrow=oval;endFill=0;" parent="1" source="gx2fqg2UMWbFpVax5CwM-7" target="uWJtjKGiHwzr4gWqTYHl-48" edge="1">
          <mxGeometry relative="1" as="geometry">
            <mxPoint x="540" y="60" as="targetPoint" />
          </mxGeometry>
        </mxCell>
        <mxCell id="gx2fqg2UMWbFpVax5CwM-7" value="&lt;b&gt;INGEGNERE&lt;/b&gt;" style="whiteSpace=wrap;html=1;align=center;" parent="1" vertex="1">
          <mxGeometry x="580.5" y="60" width="100" height="40" as="geometry" />
        </mxCell>
        <mxCell id="uWJtjKGiHwzr4gWqTYHl-29" style="edgeStyle=orthogonalEdgeStyle;rounded=0;orthogonalLoop=1;jettySize=auto;html=1;exitX=0.5;exitY=1;exitDx=0;exitDy=0;entryX=0.005;entryY=0.365;entryDx=0;entryDy=0;entryPerimeter=0;endArrow=none;endFill=0;" parent="1" source="gx2fqg2UMWbFpVax5CwM-8" target="uWJtjKGiHwzr4gWqTYHl-27" edge="1">
          <mxGeometry relative="1" as="geometry" />
        </mxCell>
        <mxCell id="uWJtjKGiHwzr4gWqTYHl-39" style="edgeStyle=none;rounded=0;orthogonalLoop=1;jettySize=auto;html=1;exitX=1;exitY=0;exitDx=0;exitDy=0;fontSize=9;endArrow=oval;endFill=0;" parent="1" source="gx2fqg2UMWbFpVax5CwM-8" target="uWJtjKGiHwzr4gWqTYHl-40" edge="1">
          <mxGeometry relative="1" as="geometry">
            <mxPoint x="910" y="30" as="targetPoint" />
          </mxGeometry>
        </mxCell>
        <mxCell id="uWJtjKGiHwzr4gWqTYHl-41" style="edgeStyle=none;rounded=0;orthogonalLoop=1;jettySize=auto;html=1;exitX=1;exitY=0.5;exitDx=0;exitDy=0;fontSize=9;endArrow=oval;endFill=0;" parent="1" source="gx2fqg2UMWbFpVax5CwM-8" target="uWJtjKGiHwzr4gWqTYHl-44" edge="1">
          <mxGeometry relative="1" as="geometry">
            <mxPoint x="930" y="80" as="targetPoint" />
          </mxGeometry>
        </mxCell>
        <mxCell id="gx2fqg2UMWbFpVax5CwM-8" value="&lt;b&gt;OPERAIO&lt;/b&gt;" style="whiteSpace=wrap;html=1;align=center;" parent="1" vertex="1">
          <mxGeometry x="780.5" y="60" width="100" height="40" as="geometry" />
        </mxCell>
        <mxCell id="uWJtjKGiHwzr4gWqTYHl-77" style="edgeStyle=none;rounded=0;orthogonalLoop=1;jettySize=auto;html=1;exitX=0.75;exitY=1;exitDx=0;exitDy=0;fontSize=9;endArrow=oval;endFill=0;entryX=0;entryY=0;entryDx=0;entryDy=0;" parent="1" source="gx2fqg2UMWbFpVax5CwM-9" target="uWJtjKGiHwzr4gWqTYHl-78" edge="1">
          <mxGeometry relative="1" as="geometry">
            <mxPoint x="770" y="460" as="targetPoint" />
          </mxGeometry>
        </mxCell>
        <mxCell id="uWJtjKGiHwzr4gWqTYHl-79" style="edgeStyle=none;rounded=0;orthogonalLoop=1;jettySize=auto;html=1;exitX=1;exitY=0;exitDx=0;exitDy=0;fontSize=9;endArrow=oval;endFill=0;" parent="1" source="gx2fqg2UMWbFpVax5CwM-9" target="uWJtjKGiHwzr4gWqTYHl-80" edge="1">
          <mxGeometry relative="1" as="geometry">
            <mxPoint x="820" y="380.0000000000001" as="targetPoint" />
          </mxGeometry>
        </mxCell>
        <mxCell id="uWJtjKGiHwzr4gWqTYHl-81" style="edgeStyle=none;rounded=0;orthogonalLoop=1;jettySize=auto;html=1;exitX=1;exitY=0.5;exitDx=0;exitDy=0;fontSize=9;endArrow=oval;endFill=0;" parent="1" source="gx2fqg2UMWbFpVax5CwM-9" target="uWJtjKGiHwzr4gWqTYHl-82" edge="1">
          <mxGeometry relative="1" as="geometry">
            <mxPoint x="800" y="409.94444444444446" as="targetPoint" />
          </mxGeometry>
        </mxCell>
        <mxCell id="uWJtjKGiHwzr4gWqTYHl-83" style="edgeStyle=none;rounded=0;orthogonalLoop=1;jettySize=auto;html=1;exitX=1;exitY=1;exitDx=0;exitDy=0;fontSize=9;endArrow=oval;endFill=0;" parent="1" source="gx2fqg2UMWbFpVax5CwM-9" target="uWJtjKGiHwzr4gWqTYHl-84" edge="1">
          <mxGeometry relative="1" as="geometry">
            <mxPoint x="800" y="440.0000000000001" as="targetPoint" />
          </mxGeometry>
        </mxCell>
        <mxCell id="gx2fqg2UMWbFpVax5CwM-9" value="&lt;b&gt;INTERVENTO&lt;/b&gt;" style="whiteSpace=wrap;html=1;align=center;" parent="1" vertex="1">
          <mxGeometry x="680.5" y="390" width="100" height="40" as="geometry" />
        </mxCell>
        <mxCell id="jzE8oIi-crpwVp-MOxEN-13" style="edgeStyle=none;rounded=0;orthogonalLoop=1;jettySize=auto;html=1;exitX=0.25;exitY=0;exitDx=0;exitDy=0;fontSize=9;fontColor=#000000;endArrow=oval;endFill=0;" parent="1" source="gx2fqg2UMWbFpVax5CwM-10" target="jzE8oIi-crpwVp-MOxEN-31" edge="1">
          <mxGeometry relative="1" as="geometry">
            <mxPoint x="1171.9444444444443" y="650" as="targetPoint" />
          </mxGeometry>
        </mxCell>
        <mxCell id="jzE8oIi-crpwVp-MOxEN-14" style="edgeStyle=none;rounded=0;orthogonalLoop=1;jettySize=auto;html=1;exitX=0.75;exitY=0;exitDx=0;exitDy=0;fontSize=9;fontColor=#000000;endArrow=oval;endFill=0;" parent="1" source="gx2fqg2UMWbFpVax5CwM-10" target="jzE8oIi-crpwVp-MOxEN-32" edge="1">
          <mxGeometry relative="1" as="geometry">
            <mxPoint x="1240" y="660" as="targetPoint" />
          </mxGeometry>
        </mxCell>
        <mxCell id="jzE8oIi-crpwVp-MOxEN-15" style="edgeStyle=none;rounded=0;orthogonalLoop=1;jettySize=auto;html=1;exitX=1;exitY=0;exitDx=0;exitDy=0;fontSize=9;fontColor=#000000;endArrow=oval;endFill=0;" parent="1" source="gx2fqg2UMWbFpVax5CwM-10" target="jzE8oIi-crpwVp-MOxEN-33" edge="1">
          <mxGeometry relative="1" as="geometry">
            <mxPoint x="1280" y="670" as="targetPoint" />
          </mxGeometry>
        </mxCell>
        <mxCell id="gx2fqg2UMWbFpVax5CwM-10" value="&lt;b&gt;CORRIERE&lt;/b&gt;" style="whiteSpace=wrap;html=1;align=center;fontColor=#000000;" parent="1" vertex="1">
          <mxGeometry x="1147" y="690" width="100" height="40" as="geometry" />
        </mxCell>
        <mxCell id="uWJtjKGiHwzr4gWqTYHl-4" style="edgeStyle=orthogonalEdgeStyle;rounded=0;orthogonalLoop=1;jettySize=auto;html=1;exitX=1;exitY=0.5;exitDx=0;exitDy=0;endArrow=none;endFill=0;" parent="1" source="gx2fqg2UMWbFpVax5CwM-11" target="gx2fqg2UMWbFpVax5CwM-2" edge="1">
          <mxGeometry relative="1" as="geometry" />
        </mxCell>
        <mxCell id="gx2fqg2UMWbFpVax5CwM-11" value="&lt;font style=&quot;font-size: 11px&quot;&gt;ACQUISTO&lt;/font&gt;" style="shape=rhombus;perimeter=rhombusPerimeter;whiteSpace=wrap;html=1;align=center;" parent="1" vertex="1">
          <mxGeometry x="601" y="680" width="120" height="60" as="geometry" />
        </mxCell>
        <mxCell id="uWJtjKGiHwzr4gWqTYHl-5" style="edgeStyle=orthogonalEdgeStyle;rounded=0;orthogonalLoop=1;jettySize=auto;html=1;exitX=0.5;exitY=0;exitDx=0;exitDy=0;entryX=0.5;entryY=1;entryDx=0;entryDy=0;endArrow=none;endFill=0;" parent="1" source="gx2fqg2UMWbFpVax5CwM-14" target="gx2fqg2UMWbFpVax5CwM-2" edge="1">
          <mxGeometry relative="1" as="geometry" />
        </mxCell>
        <mxCell id="gx2fqg2UMWbFpVax5CwM-14" value="&lt;font style=&quot;font-size: 11px&quot;&gt;APPARTENENZA&lt;/font&gt;" style="shape=rhombus;perimeter=rhombusPerimeter;whiteSpace=wrap;html=1;align=center;" parent="1" vertex="1">
          <mxGeometry x="771" y="810" width="120" height="60" as="geometry" />
        </mxCell>
        <mxCell id="uWJtjKGiHwzr4gWqTYHl-30" style="edgeStyle=orthogonalEdgeStyle;rounded=0;orthogonalLoop=1;jettySize=auto;html=1;exitX=0.5;exitY=1;exitDx=0;exitDy=0;entryX=0.5;entryY=0;entryDx=0;entryDy=0;endArrow=none;endFill=0;" parent="1" source="gx2fqg2UMWbFpVax5CwM-17" target="gx2fqg2UMWbFpVax5CwM-5" edge="1">
          <mxGeometry relative="1" as="geometry" />
        </mxCell>
        <mxCell id="gx2fqg2UMWbFpVax5CwM-17" value="&lt;font style=&quot;font-size: 11px&quot;&gt;PARTECIPAZIONE&lt;/font&gt;" style="shape=rhombus;perimeter=rhombusPerimeter;whiteSpace=wrap;html=1;align=center;" parent="1" vertex="1">
          <mxGeometry x="880.5" y="280" width="120" height="60" as="geometry" />
        </mxCell>
        <mxCell id="uWJtjKGiHwzr4gWqTYHl-7" style="edgeStyle=orthogonalEdgeStyle;rounded=0;orthogonalLoop=1;jettySize=auto;html=1;exitX=1;exitY=0.5;exitDx=0;exitDy=0;entryX=0;entryY=0.5;entryDx=0;entryDy=0;endArrow=none;endFill=0;fontColor=#000000;" parent="1" source="gx2fqg2UMWbFpVax5CwM-18" target="gx2fqg2UMWbFpVax5CwM-10" edge="1">
          <mxGeometry relative="1" as="geometry" />
        </mxCell>
        <mxCell id="gx2fqg2UMWbFpVax5CwM-18" value="&lt;font style=&quot;font-size: 11px&quot;&gt;AFFIDO&lt;/font&gt;" style="shape=rhombus;perimeter=rhombusPerimeter;whiteSpace=wrap;html=1;align=center;" parent="1" vertex="1">
          <mxGeometry x="947" y="680" width="120" height="60" as="geometry" />
        </mxCell>
        <mxCell id="uWJtjKGiHwzr4gWqTYHl-20" style="edgeStyle=orthogonalEdgeStyle;rounded=0;orthogonalLoop=1;jettySize=auto;html=1;exitX=0.5;exitY=0;exitDx=0;exitDy=0;entryX=0.5;entryY=1;entryDx=0;entryDy=0;endArrow=none;endFill=0;" parent="1" source="FtTrVJw0tq06EMOVsZJ_-155" target="gx2fqg2UMWbFpVax5CwM-9" edge="1">
          <mxGeometry relative="1" as="geometry" />
        </mxCell>
        <mxCell id="FtTrVJw0tq06EMOVsZJ_-155" value="&lt;font style=&quot;font-size: 11px&quot;&gt;ESECUZIONE&lt;/font&gt;" style="shape=rhombus;perimeter=rhombusPerimeter;whiteSpace=wrap;html=1;align=center;" parent="1" vertex="1">
          <mxGeometry x="670.5" y="490" width="120" height="60" as="geometry" />
        </mxCell>
        <mxCell id="uWJtjKGiHwzr4gWqTYHl-25" style="edgeStyle=orthogonalEdgeStyle;rounded=0;orthogonalLoop=1;jettySize=auto;html=1;exitX=0.5;exitY=1;exitDx=0;exitDy=0;entryX=0.5;entryY=0;entryDx=0;entryDy=0;endArrow=none;endFill=0;" parent="1" source="FtTrVJw0tq06EMOVsZJ_-156" target="gx2fqg2UMWbFpVax5CwM-9" edge="1">
          <mxGeometry relative="1" as="geometry" />
        </mxCell>
        <mxCell id="uWJtjKGiHwzr4gWqTYHl-71" style="edgeStyle=none;rounded=0;orthogonalLoop=1;jettySize=auto;html=1;exitX=0;exitY=0;exitDx=0;exitDy=0;fontSize=9;endArrow=oval;endFill=0;" parent="1" source="FtTrVJw0tq06EMOVsZJ_-156" target="uWJtjKGiHwzr4gWqTYHl-72" edge="1">
          <mxGeometry relative="1" as="geometry">
            <mxPoint x="690" y="270" as="targetPoint" />
          </mxGeometry>
        </mxCell>
        <mxCell id="uWJtjKGiHwzr4gWqTYHl-73" style="edgeStyle=none;rounded=0;orthogonalLoop=1;jettySize=auto;html=1;exitX=1;exitY=0;exitDx=0;exitDy=0;fontSize=9;endArrow=oval;endFill=0;" parent="1" source="FtTrVJw0tq06EMOVsZJ_-156" target="uWJtjKGiHwzr4gWqTYHl-74" edge="1">
          <mxGeometry relative="1" as="geometry">
            <mxPoint x="770" y="270" as="targetPoint" />
          </mxGeometry>
        </mxCell>
        <mxCell id="uWJtjKGiHwzr4gWqTYHl-75" style="edgeStyle=none;rounded=0;orthogonalLoop=1;jettySize=auto;html=1;exitX=0;exitY=1;exitDx=0;exitDy=0;fontSize=9;endArrow=oval;endFill=0;" parent="1" source="FtTrVJw0tq06EMOVsZJ_-156" target="uWJtjKGiHwzr4gWqTYHl-76" edge="1">
          <mxGeometry relative="1" as="geometry">
            <mxPoint x="680" y="350" as="targetPoint" />
          </mxGeometry>
        </mxCell>
        <mxCell id="FtTrVJw0tq06EMOVsZJ_-156" value="&lt;font style=&quot;font-size: 11px&quot;&gt;COINVOLGIMENTO&lt;/font&gt;" style="shape=rhombus;perimeter=rhombusPerimeter;whiteSpace=wrap;html=1;align=center;" parent="1" vertex="1">
          <mxGeometry x="670.5" y="280" width="120" height="60" as="geometry" />
        </mxCell>
        <mxCell id="L8EaPlabEkE5flBV4axa-14" style="edgeStyle=orthogonalEdgeStyle;rounded=0;orthogonalLoop=1;jettySize=auto;html=1;exitX=1;exitY=0.5;exitDx=0;exitDy=0;entryX=0;entryY=0.5;entryDx=0;entryDy=0;entryPerimeter=0;endArrow=none;endFill=0;" parent="1" source="FtTrVJw0tq06EMOVsZJ_-158" target="uWJtjKGiHwzr4gWqTYHl-22" edge="1">
          <mxGeometry relative="1" as="geometry" />
        </mxCell>
        <mxCell id="FtTrVJw0tq06EMOVsZJ_-158" value="&lt;b&gt;SOSTITUZIONE&lt;/b&gt;" style="whiteSpace=wrap;html=1;align=center;" parent="1" vertex="1">
          <mxGeometry x="485" y="390.01" width="100" height="40" as="geometry" />
        </mxCell>
        <mxCell id="uWJtjKGiHwzr4gWqTYHl-21" style="edgeStyle=orthogonalEdgeStyle;rounded=0;orthogonalLoop=1;jettySize=auto;html=1;exitX=0.5;exitY=0;exitDx=0;exitDy=0;entryX=0.5;entryY=1;entryDx=0;entryDy=0;endArrow=none;endFill=0;" parent="1" source="FtTrVJw0tq06EMOVsZJ_-159" target="gx2fqg2UMWbFpVax5CwM-5" edge="1">
          <mxGeometry relative="1" as="geometry" />
        </mxCell>
        <mxCell id="FtTrVJw0tq06EMOVsZJ_-159" value="&lt;font style=&quot;font-size: 11px&quot;&gt;REALIZZAZIONE&lt;/font&gt;" style="shape=rhombus;perimeter=rhombusPerimeter;whiteSpace=wrap;html=1;align=center;" parent="1" vertex="1">
          <mxGeometry x="881" y="490" width="120" height="60" as="geometry" />
        </mxCell>
        <mxCell id="uWJtjKGiHwzr4gWqTYHl-32" style="edgeStyle=orthogonalEdgeStyle;rounded=0;orthogonalLoop=1;jettySize=auto;html=1;exitX=0.5;exitY=0;exitDx=0;exitDy=0;entryX=-0.003;entryY=0.404;entryDx=0;entryDy=0;entryPerimeter=0;endArrow=none;endFill=0;" parent="1" edge="1">
          <mxGeometry relative="1" as="geometry">
            <mxPoint x="731" y="1070" as="sourcePoint" />
            <mxPoint x="826.372" y="1020.1200000000001" as="targetPoint" />
            <Array as="points">
              <mxPoint x="731" y="1040" />
              <mxPoint x="826" y="1040" />
            </Array>
          </mxGeometry>
        </mxCell>
        <mxCell id="uWJtjKGiHwzr4gWqTYHl-103" style="edgeStyle=none;rounded=0;orthogonalLoop=1;jettySize=auto;html=1;exitX=0;exitY=0;exitDx=0;exitDy=0;fontSize=9;endArrow=none;endFill=0;" parent="1" source="FtTrVJw0tq06EMOVsZJ_-160" target="uWJtjKGiHwzr4gWqTYHl-104" edge="1">
          <mxGeometry relative="1" as="geometry">
            <mxPoint x="650" y="1050" as="targetPoint" />
          </mxGeometry>
        </mxCell>
        <mxCell id="uWJtjKGiHwzr4gWqTYHl-111" style="edgeStyle=none;rounded=0;orthogonalLoop=1;jettySize=auto;html=1;exitX=0;exitY=0.5;exitDx=0;exitDy=0;fontSize=9;endArrow=oval;endFill=0;" parent="1" source="FtTrVJw0tq06EMOVsZJ_-160" target="uWJtjKGiHwzr4gWqTYHl-112" edge="1">
          <mxGeometry relative="1" as="geometry">
            <mxPoint x="630" y="1110" as="targetPoint" />
          </mxGeometry>
        </mxCell>
        <mxCell id="L8EaPlabEkE5flBV4axa-6" style="edgeStyle=orthogonalEdgeStyle;rounded=0;orthogonalLoop=1;jettySize=auto;html=1;exitX=0.5;exitY=1;exitDx=0;exitDy=0;endArrow=none;endFill=0;entryX=0;entryY=0.5;entryDx=0;entryDy=0;" parent="1" source="FtTrVJw0tq06EMOVsZJ_-160" target="L8EaPlabEkE5flBV4axa-4" edge="1">
          <mxGeometry relative="1" as="geometry">
            <mxPoint x="731.2857142857143" y="1190" as="targetPoint" />
          </mxGeometry>
        </mxCell>
        <mxCell id="FtTrVJw0tq06EMOVsZJ_-160" value="&lt;b&gt;BASE&lt;/b&gt;" style="whiteSpace=wrap;html=1;align=center;" parent="1" vertex="1">
          <mxGeometry x="681" y="1070" width="100" height="40" as="geometry" />
        </mxCell>
        <mxCell id="uWJtjKGiHwzr4gWqTYHl-33" style="edgeStyle=orthogonalEdgeStyle;rounded=0;orthogonalLoop=1;jettySize=auto;html=1;exitX=0.5;exitY=0;exitDx=0;exitDy=0;entryX=0.022;entryY=0.619;entryDx=0;entryDy=0;entryPerimeter=0;endArrow=none;endFill=0;" parent="1" edge="1">
          <mxGeometry relative="1" as="geometry">
            <mxPoint x="930" y="1070" as="sourcePoint" />
            <mxPoint x="834.617" y="1019.1200000000001" as="targetPoint" />
            <Array as="points">
              <mxPoint x="930" y="1040" />
              <mxPoint x="835" y="1040" />
            </Array>
          </mxGeometry>
        </mxCell>
        <mxCell id="uWJtjKGiHwzr4gWqTYHl-113" style="edgeStyle=none;rounded=0;orthogonalLoop=1;jettySize=auto;html=1;exitX=1;exitY=0;exitDx=0;exitDy=0;fontSize=9;endArrow=oval;endFill=0;" parent="1" source="FtTrVJw0tq06EMOVsZJ_-161" target="uWJtjKGiHwzr4gWqTYHl-114" edge="1">
          <mxGeometry relative="1" as="geometry">
            <mxPoint x="1010" y="1050" as="targetPoint" />
          </mxGeometry>
        </mxCell>
        <mxCell id="FtTrVJw0tq06EMOVsZJ_-161" value="&lt;b&gt;ACCESSORIA&lt;/b&gt;" style="whiteSpace=wrap;html=1;align=center;" parent="1" vertex="1">
          <mxGeometry x="881" y="1070" width="100" height="40" as="geometry" />
        </mxCell>
        <mxCell id="uWJtjKGiHwzr4gWqTYHl-10" value="" style="html=1;shadow=0;dashed=0;align=center;verticalAlign=middle;shape=mxgraph.arrows2.arrow;dy=0.53;dx=21.86;direction=north;notch=0;gradientColor=#ffffff;" parent="1" vertex="1">
          <mxGeometry x="809" y="980" width="43" height="40" as="geometry" />
        </mxCell>
        <mxCell id="uWJtjKGiHwzr4gWqTYHl-22" value="" style="html=1;shadow=0;dashed=0;align=center;verticalAlign=middle;shape=mxgraph.arrows2.arrow;dy=0.53;dx=21.86;direction=north;notch=0;rotation=90;gradientColor=#FFFFFF;sketch=0;strokeOpacity=100;" parent="1" vertex="1">
          <mxGeometry x="638" y="390" width="43" height="40" as="geometry" />
        </mxCell>
        <mxCell id="uWJtjKGiHwzr4gWqTYHl-27" value="" style="html=1;shadow=0;dashed=0;align=center;verticalAlign=middle;shape=mxgraph.arrows2.arrow;dy=0.53;dx=21.86;direction=north;notch=0;gradientColor=#ffffff;rotation=-180;" parent="1" vertex="1">
          <mxGeometry x="709" y="140" width="43" height="40" as="geometry" />
        </mxCell>
        <mxCell id="uWJtjKGiHwzr4gWqTYHl-38" value="Problematiche" style="text;html=1;strokeColor=none;fillColor=none;align=center;verticalAlign=middle;whiteSpace=wrap;rounded=0;fontSize=9;" parent="1" vertex="1">
          <mxGeometry x="890" y="650" width="51" height="20" as="geometry" />
        </mxCell>
        <mxCell id="uWJtjKGiHwzr4gWqTYHl-40" value="Disponibilità" style="text;html=1;strokeColor=none;fillColor=none;align=center;verticalAlign=middle;whiteSpace=wrap;rounded=0;fontSize=9;" parent="1" vertex="1">
          <mxGeometry x="880" y="15" width="60" height="30" as="geometry" />
        </mxCell>
        <mxCell id="uWJtjKGiHwzr4gWqTYHl-44" value="OreManutenzione" style="text;html=1;strokeColor=none;fillColor=none;align=center;verticalAlign=middle;whiteSpace=wrap;rounded=0;fontSize=9;" parent="1" vertex="1">
          <mxGeometry x="911.5" y="45" width="89" height="30" as="geometry" />
        </mxCell>
        <mxCell id="uWJtjKGiHwzr4gWqTYHl-46" value="AlboProfessionale" style="text;html=1;strokeColor=none;fillColor=none;align=center;verticalAlign=middle;whiteSpace=wrap;rounded=0;fontSize=9;" parent="1" vertex="1">
          <mxGeometry x="600.4955555555555" y="10" width="60" height="30" as="geometry" />
        </mxCell>
        <mxCell id="uWJtjKGiHwzr4gWqTYHl-48" value="Specializzazione" style="text;html=1;strokeColor=none;fillColor=none;align=center;verticalAlign=middle;whiteSpace=wrap;rounded=0;fontSize=9;" parent="1" vertex="1">
          <mxGeometry x="480" y="30" width="60" height="30" as="geometry" />
        </mxCell>
        <mxCell id="uWJtjKGiHwzr4gWqTYHl-56" style="edgeStyle=none;rounded=0;orthogonalLoop=1;jettySize=auto;html=1;exitX=0.5;exitY=0;exitDx=0;exitDy=0;fontSize=9;endArrow=oval;endFill=0;" parent="1" source="uWJtjKGiHwzr4gWqTYHl-51" target="uWJtjKGiHwzr4gWqTYHl-61" edge="1">
          <mxGeometry relative="1" as="geometry">
            <mxPoint x="580" y="140" as="targetPoint" />
          </mxGeometry>
        </mxCell>
        <mxCell id="uWJtjKGiHwzr4gWqTYHl-57" style="edgeStyle=none;rounded=0;orthogonalLoop=1;jettySize=auto;html=1;exitX=0;exitY=0;exitDx=0;exitDy=0;fontSize=9;endArrow=oval;endFill=0;" parent="1" source="uWJtjKGiHwzr4gWqTYHl-51" target="uWJtjKGiHwzr4gWqTYHl-62" edge="1">
          <mxGeometry relative="1" as="geometry">
            <mxPoint x="540" y="150" as="targetPoint" />
          </mxGeometry>
        </mxCell>
        <mxCell id="uWJtjKGiHwzr4gWqTYHl-58" style="edgeStyle=none;rounded=0;orthogonalLoop=1;jettySize=auto;html=1;exitX=0;exitY=0.5;exitDx=0;exitDy=0;fontSize=9;endArrow=oval;endFill=0;" parent="1" source="uWJtjKGiHwzr4gWqTYHl-51" target="uWJtjKGiHwzr4gWqTYHl-63" edge="1">
          <mxGeometry relative="1" as="geometry">
            <mxPoint x="520" y="180" as="targetPoint" />
          </mxGeometry>
        </mxCell>
        <mxCell id="uWJtjKGiHwzr4gWqTYHl-51" value="Anagrafica" style="ellipse;whiteSpace=wrap;html=1;align=center;fontSize=9;gradientColor=#ffffff;fillColor=none;" parent="1" vertex="1">
          <mxGeometry x="540" y="160" width="80" height="30" as="geometry" />
        </mxCell>
        <mxCell id="uWJtjKGiHwzr4gWqTYHl-59" style="edgeStyle=none;rounded=0;orthogonalLoop=1;jettySize=auto;html=1;exitX=0;exitY=0;exitDx=0;exitDy=0;fontSize=9;endArrow=oval;endFill=0;" parent="1" source="uWJtjKGiHwzr4gWqTYHl-55" target="uWJtjKGiHwzr4gWqTYHl-64" edge="1">
          <mxGeometry relative="1" as="geometry">
            <mxPoint x="550" y="230" as="targetPoint" />
          </mxGeometry>
        </mxCell>
        <mxCell id="uWJtjKGiHwzr4gWqTYHl-60" style="edgeStyle=none;rounded=0;orthogonalLoop=1;jettySize=auto;html=1;exitX=0;exitY=1;exitDx=0;exitDy=0;fontSize=9;endArrow=oval;endFill=0;" parent="1" source="uWJtjKGiHwzr4gWqTYHl-55" target="uWJtjKGiHwzr4gWqTYHl-65" edge="1">
          <mxGeometry relative="1" as="geometry">
            <mxPoint x="550" y="280" as="targetPoint" />
          </mxGeometry>
        </mxCell>
        <mxCell id="uWJtjKGiHwzr4gWqTYHl-55" value="Contatti" style="ellipse;whiteSpace=wrap;html=1;align=center;fontSize=9;fillColor=none;gradientColor=#ffffff;" parent="1" vertex="1">
          <mxGeometry x="558" y="240" width="80" height="30" as="geometry" />
        </mxCell>
        <mxCell id="uWJtjKGiHwzr4gWqTYHl-61" value="Nome" style="text;html=1;strokeColor=none;fillColor=none;align=center;verticalAlign=middle;whiteSpace=wrap;rounded=0;fontSize=9;" parent="1" vertex="1">
          <mxGeometry x="530" y="110" width="36.5" height="20" as="geometry" />
        </mxCell>
        <mxCell id="uWJtjKGiHwzr4gWqTYHl-62" value="Cognome" style="text;html=1;strokeColor=none;fillColor=none;align=center;verticalAlign=middle;whiteSpace=wrap;rounded=0;fontSize=9;" parent="1" vertex="1">
          <mxGeometry x="470" y="130" width="45" height="20" as="geometry" />
        </mxCell>
        <mxCell id="uWJtjKGiHwzr4gWqTYHl-63" value="CF" style="text;html=1;strokeColor=none;fillColor=none;align=center;verticalAlign=middle;whiteSpace=wrap;rounded=0;fontSize=9;" parent="1" vertex="1">
          <mxGeometry x="480" y="165" width="30" height="20" as="geometry" />
        </mxCell>
        <mxCell id="uWJtjKGiHwzr4gWqTYHl-64" value="Telefono" style="text;html=1;strokeColor=none;fillColor=none;align=center;verticalAlign=middle;whiteSpace=wrap;rounded=0;fontSize=9;" parent="1" vertex="1">
          <mxGeometry x="500" y="215" width="40" height="25" as="geometry" />
        </mxCell>
        <mxCell id="uWJtjKGiHwzr4gWqTYHl-65" value="E-mail" style="text;html=1;strokeColor=none;fillColor=none;align=center;verticalAlign=middle;whiteSpace=wrap;rounded=0;fontSize=9;" parent="1" vertex="1">
          <mxGeometry x="490" y="260" width="40" height="20" as="geometry" />
        </mxCell>
        <mxCell id="uWJtjKGiHwzr4gWqTYHl-67" value="TipoContratto" style="text;html=1;strokeColor=none;fillColor=none;align=center;verticalAlign=middle;whiteSpace=wrap;rounded=0;fontSize=9;" parent="1" vertex="1">
          <mxGeometry x="800.5" y="140" width="60" height="30" as="geometry" />
        </mxCell>
        <mxCell id="uWJtjKGiHwzr4gWqTYHl-68" style="edgeStyle=none;rounded=0;orthogonalLoop=1;jettySize=auto;html=1;exitX=0;exitY=1;exitDx=0;exitDy=0;fontSize=9;endArrow=oval;endFill=0;" parent="1" source="FtTrVJw0tq06EMOVsZJ_-156" target="FtTrVJw0tq06EMOVsZJ_-156" edge="1">
          <mxGeometry relative="1" as="geometry" />
        </mxCell>
        <mxCell id="uWJtjKGiHwzr4gWqTYHl-70" style="edgeStyle=none;rounded=0;orthogonalLoop=1;jettySize=auto;html=1;exitX=0;exitY=0;exitDx=0;exitDy=0;fontSize=9;endArrow=oval;endFill=0;" parent="1" source="FtTrVJw0tq06EMOVsZJ_-156" target="FtTrVJw0tq06EMOVsZJ_-156" edge="1">
          <mxGeometry relative="1" as="geometry" />
        </mxCell>
        <mxCell id="uWJtjKGiHwzr4gWqTYHl-72" value="DataInizio" style="text;html=1;strokeColor=none;fillColor=none;align=center;verticalAlign=middle;whiteSpace=wrap;rounded=0;fontSize=9;" parent="1" vertex="1">
          <mxGeometry x="638" y="260" width="40" height="25" as="geometry" />
        </mxCell>
        <mxCell id="uWJtjKGiHwzr4gWqTYHl-74" value="DataFine" style="text;html=1;strokeColor=none;fillColor=none;align=center;verticalAlign=middle;whiteSpace=wrap;rounded=0;fontSize=9;" parent="1" vertex="1">
          <mxGeometry x="806.75" y="245" width="40" height="25" as="geometry" />
        </mxCell>
        <mxCell id="uWJtjKGiHwzr4gWqTYHl-76" value="Ore" style="text;html=1;strokeColor=none;fillColor=none;align=center;verticalAlign=middle;whiteSpace=wrap;rounded=0;fontSize=9;" parent="1" vertex="1">
          <mxGeometry x="660.5" y="335" width="20" height="15" as="geometry" />
        </mxCell>
        <mxCell id="uWJtjKGiHwzr4gWqTYHl-78" value="#Progressivo" style="text;html=1;strokeColor=none;fillColor=none;align=center;verticalAlign=middle;whiteSpace=wrap;rounded=0;fontSize=9;" parent="1" vertex="1">
          <mxGeometry x="778.31" y="465" width="60" height="25" as="geometry" />
        </mxCell>
        <mxCell id="uWJtjKGiHwzr4gWqTYHl-80" value="Stato" style="text;html=1;strokeColor=none;fillColor=none;align=center;verticalAlign=middle;whiteSpace=wrap;rounded=0;fontSize=9;" parent="1" vertex="1">
          <mxGeometry x="800.5" y="365" width="40" height="15" as="geometry" />
        </mxCell>
        <mxCell id="uWJtjKGiHwzr4gWqTYHl-82" value="DataArrivo" style="text;html=1;strokeColor=none;fillColor=none;align=center;verticalAlign=middle;whiteSpace=wrap;rounded=0;fontSize=9;" parent="1" vertex="1">
          <mxGeometry x="800" y="395" width="60" height="15" as="geometry" />
        </mxCell>
        <mxCell id="uWJtjKGiHwzr4gWqTYHl-84" value="DataFine" style="text;html=1;strokeColor=none;fillColor=none;align=center;verticalAlign=middle;whiteSpace=wrap;rounded=0;fontSize=9;" parent="1" vertex="1">
          <mxGeometry x="795.5" y="430" width="50" height="15" as="geometry" />
        </mxCell>
        <mxCell id="uWJtjKGiHwzr4gWqTYHl-86" value="Tipo" style="text;html=1;strokeColor=none;fillColor=none;align=center;verticalAlign=middle;whiteSpace=wrap;rounded=0;fontSize=9;" parent="1" vertex="1">
          <mxGeometry x="1001" y="355" width="30" height="25" as="geometry" />
        </mxCell>
        <mxCell id="uWJtjKGiHwzr4gWqTYHl-88" value="ID" style="text;html=1;strokeColor=none;fillColor=none;align=center;verticalAlign=middle;whiteSpace=wrap;rounded=0;fontSize=9;" parent="1" vertex="1">
          <mxGeometry x="1020" y="399.99" width="21" height="20.03" as="geometry" />
        </mxCell>
        <mxCell id="uWJtjKGiHwzr4gWqTYHl-90" value="Valutazione" style="text;html=1;strokeColor=none;fillColor=none;align=center;verticalAlign=middle;whiteSpace=wrap;rounded=0;fontSize=9;" parent="1" vertex="1">
          <mxGeometry x="730" y="650" width="40" height="25" as="geometry" />
        </mxCell>
        <mxCell id="uWJtjKGiHwzr4gWqTYHl-92" value="Seriale" style="text;html=1;strokeColor=none;fillColor=none;align=center;verticalAlign=middle;whiteSpace=wrap;rounded=0;fontSize=9;" parent="1" vertex="1">
          <mxGeometry x="705.5" y="750" width="50" height="15" as="geometry" />
        </mxCell>
        <mxCell id="uWJtjKGiHwzr4gWqTYHl-94" value="Prezzo" style="text;html=1;strokeColor=none;fillColor=none;align=center;verticalAlign=middle;whiteSpace=wrap;rounded=0;fontSize=9;" parent="1" vertex="1">
          <mxGeometry x="769" y="750" width="40" height="15" as="geometry" />
        </mxCell>
        <mxCell id="uWJtjKGiHwzr4gWqTYHl-96" value="#Accessori" style="text;html=1;strokeColor=none;fillColor=none;align=center;verticalAlign=middle;whiteSpace=wrap;rounded=0;fontSize=9;" parent="1" vertex="1">
          <mxGeometry x="845.5" y="750" width="30" height="15" as="geometry" />
        </mxCell>
        <mxCell id="uWJtjKGiHwzr4gWqTYHl-98" value="Descrizione" style="text;html=1;strokeColor=none;fillColor=none;align=center;verticalAlign=middle;whiteSpace=wrap;rounded=0;fontSize=9;" parent="1" vertex="1">
          <mxGeometry x="895.5" y="750" width="40" height="15" as="geometry" />
        </mxCell>
        <mxCell id="uWJtjKGiHwzr4gWqTYHl-100" value="Nome" style="text;html=1;strokeColor=none;fillColor=none;align=center;verticalAlign=middle;whiteSpace=wrap;rounded=0;fontSize=9;" parent="1" vertex="1">
          <mxGeometry x="911.5" y="900" width="30" height="20" as="geometry" />
        </mxCell>
        <mxCell id="uWJtjKGiHwzr4gWqTYHl-102" value="DestinazioneUso" style="text;html=1;strokeColor=none;fillColor=none;align=center;verticalAlign=middle;whiteSpace=wrap;rounded=0;fontSize=9;" parent="1" vertex="1">
          <mxGeometry x="720" y="895" width="60" height="25" as="geometry" />
        </mxCell>
        <mxCell id="uWJtjKGiHwzr4gWqTYHl-105" style="edgeStyle=none;rounded=0;orthogonalLoop=1;jettySize=auto;html=1;exitX=0;exitY=1;exitDx=0;exitDy=0;fontSize=9;endArrow=oval;endFill=0;" parent="1" source="uWJtjKGiHwzr4gWqTYHl-104" target="uWJtjKGiHwzr4gWqTYHl-110" edge="1">
          <mxGeometry relative="1" as="geometry">
            <mxPoint x="580" y="1080" as="targetPoint" />
          </mxGeometry>
        </mxCell>
        <mxCell id="uWJtjKGiHwzr4gWqTYHl-106" style="edgeStyle=none;rounded=0;orthogonalLoop=1;jettySize=auto;html=1;exitX=0;exitY=0.5;exitDx=0;exitDy=0;fontSize=9;endArrow=oval;endFill=0;" parent="1" source="uWJtjKGiHwzr4gWqTYHl-104" target="uWJtjKGiHwzr4gWqTYHl-109" edge="1">
          <mxGeometry relative="1" as="geometry">
            <mxPoint x="570" y="1044.9444444444443" as="targetPoint" />
          </mxGeometry>
        </mxCell>
        <mxCell id="uWJtjKGiHwzr4gWqTYHl-107" style="edgeStyle=none;rounded=0;orthogonalLoop=1;jettySize=auto;html=1;exitX=0;exitY=0;exitDx=0;exitDy=0;fontSize=9;endArrow=oval;endFill=0;" parent="1" source="uWJtjKGiHwzr4gWqTYHl-104" target="uWJtjKGiHwzr4gWqTYHl-108" edge="1">
          <mxGeometry relative="1" as="geometry">
            <mxPoint x="580" y="1010" as="targetPoint" />
          </mxGeometry>
        </mxCell>
        <mxCell id="uWJtjKGiHwzr4gWqTYHl-104" value="Dimensioni" style="ellipse;whiteSpace=wrap;html=1;align=center;fontSize=9;fillColor=none;gradientColor=#ffffff;" parent="1" vertex="1">
          <mxGeometry x="590.5" y="1030" width="80" height="30" as="geometry" />
        </mxCell>
        <mxCell id="uWJtjKGiHwzr4gWqTYHl-108" value="Lunghezza" style="text;html=1;strokeColor=none;fillColor=none;align=center;verticalAlign=middle;whiteSpace=wrap;rounded=0;fontSize=9;" parent="1" vertex="1">
          <mxGeometry x="550" y="995" width="40" height="25" as="geometry" />
        </mxCell>
        <mxCell id="uWJtjKGiHwzr4gWqTYHl-109" value="Larghezza" style="text;html=1;strokeColor=none;fillColor=none;align=center;verticalAlign=middle;whiteSpace=wrap;rounded=0;fontSize=9;" parent="1" vertex="1">
          <mxGeometry x="510" y="1030" width="50" height="20" as="geometry" />
        </mxCell>
        <mxCell id="uWJtjKGiHwzr4gWqTYHl-110" value="Altezza" style="text;html=1;strokeColor=none;fillColor=none;align=center;verticalAlign=middle;whiteSpace=wrap;rounded=0;fontSize=9;" parent="1" vertex="1">
          <mxGeometry x="546.5" y="1070" width="40" height="15" as="geometry" />
        </mxCell>
        <mxCell id="uWJtjKGiHwzr4gWqTYHl-112" value="Trattamenti" style="text;html=1;strokeColor=none;fillColor=none;align=center;verticalAlign=middle;whiteSpace=wrap;rounded=0;fontSize=9;" parent="1" vertex="1">
          <mxGeometry x="573" y="1095" width="50" height="15" as="geometry" />
        </mxCell>
        <mxCell id="uWJtjKGiHwzr4gWqTYHl-114" value="Applicabilità multipla" style="text;html=1;strokeColor=none;fillColor=none;align=center;verticalAlign=middle;whiteSpace=wrap;rounded=0;fontSize=9;" parent="1" vertex="1">
          <mxGeometry x="1000.5" y="1035" width="51" height="25" as="geometry" />
        </mxCell>
        <mxCell id="uWJtjKGiHwzr4gWqTYHl-116" value="Lotto" style="text;html=1;strokeColor=none;fillColor=none;align=center;verticalAlign=middle;whiteSpace=wrap;rounded=0;fontSize=9;" parent="1" vertex="1">
          <mxGeometry x="820.45" y="645" width="21.11" height="25" as="geometry" />
        </mxCell>
        <mxCell id="jzE8oIi-crpwVp-MOxEN-1" value="(1,N)" style="text;html=1;align=center;verticalAlign=middle;whiteSpace=wrap;rounded=0;fontColor=#FF0000;" parent="1" vertex="1">
          <mxGeometry x="780" y="185" width="40" height="10" as="geometry" />
        </mxCell>
        <mxCell id="jzE8oIi-crpwVp-MOxEN-2" style="edgeStyle=none;rounded=0;orthogonalLoop=1;jettySize=auto;html=1;exitX=0;exitY=0.25;exitDx=0;exitDy=0;fontSize=9;endArrow=none;endFill=0;entryX=1;entryY=0.5;entryDx=0;entryDy=0;fontColor=#000000;" parent="1" target="jzE8oIi-crpwVp-MOxEN-6" edge="1">
          <mxGeometry relative="1" as="geometry">
            <mxPoint x="403.5" y="689.9444444444445" as="targetPoint" />
            <mxPoint x="414" y="690" as="sourcePoint" />
          </mxGeometry>
        </mxCell>
        <mxCell id="jzE8oIi-crpwVp-MOxEN-3" style="edgeStyle=none;rounded=0;orthogonalLoop=1;jettySize=auto;html=1;exitX=0.5;exitY=0;exitDx=0;exitDy=0;fontSize=9;endArrow=oval;endFill=0;fontColor=#000000;entryX=0.5;entryY=1;entryDx=0;entryDy=0;" parent="1" source="jzE8oIi-crpwVp-MOxEN-6" target="jzE8oIi-crpwVp-MOxEN-34" edge="1">
          <mxGeometry relative="1" as="geometry">
            <mxPoint x="331" y="640" as="targetPoint" />
          </mxGeometry>
        </mxCell>
        <mxCell id="jzE8oIi-crpwVp-MOxEN-4" style="edgeStyle=none;rounded=0;orthogonalLoop=1;jettySize=auto;html=1;exitX=0;exitY=0;exitDx=0;exitDy=0;fontSize=9;endArrow=oval;endFill=0;fontColor=#000000;entryX=1;entryY=1;entryDx=0;entryDy=0;" parent="1" source="jzE8oIi-crpwVp-MOxEN-6" target="jzE8oIi-crpwVp-MOxEN-37" edge="1">
          <mxGeometry relative="1" as="geometry">
            <mxPoint x="291" y="650" as="targetPoint" />
          </mxGeometry>
        </mxCell>
        <mxCell id="jzE8oIi-crpwVp-MOxEN-5" style="edgeStyle=none;rounded=0;orthogonalLoop=1;jettySize=auto;html=1;exitX=0;exitY=0.5;exitDx=0;exitDy=0;fontSize=9;endArrow=oval;endFill=1;fontColor=#000000;entryX=1;entryY=0.5;entryDx=0;entryDy=0;" parent="1" source="jzE8oIi-crpwVp-MOxEN-6" target="jzE8oIi-crpwVp-MOxEN-38" edge="1">
          <mxGeometry relative="1" as="geometry">
            <mxPoint x="271" y="680" as="targetPoint" />
          </mxGeometry>
        </mxCell>
        <mxCell id="jzE8oIi-crpwVp-MOxEN-6" value="Anagrafica" style="ellipse;whiteSpace=wrap;html=1;align=center;fontSize=9;gradientColor=#ffffff;fillColor=none;fontColor=#000000;" parent="1" vertex="1">
          <mxGeometry x="291" y="660" width="80" height="30" as="geometry" />
        </mxCell>
        <mxCell id="jzE8oIi-crpwVp-MOxEN-7" style="edgeStyle=none;rounded=0;orthogonalLoop=1;jettySize=auto;html=1;exitX=0;exitY=0.75;exitDx=0;exitDy=0;fontSize=9;endArrow=none;endFill=0;fontColor=#000000;" parent="1" target="jzE8oIi-crpwVp-MOxEN-10" edge="1">
          <mxGeometry relative="1" as="geometry">
            <mxPoint x="353" y="740" as="targetPoint" />
            <mxPoint x="413.5" y="730" as="sourcePoint" />
          </mxGeometry>
        </mxCell>
        <mxCell id="jzE8oIi-crpwVp-MOxEN-8" style="edgeStyle=none;rounded=0;orthogonalLoop=1;jettySize=auto;html=1;exitX=0;exitY=0;exitDx=0;exitDy=0;fontSize=9;endArrow=oval;endFill=0;fontColor=#000000;entryX=1;entryY=1;entryDx=0;entryDy=0;" parent="1" source="jzE8oIi-crpwVp-MOxEN-10" target="jzE8oIi-crpwVp-MOxEN-42" edge="1">
          <mxGeometry relative="1" as="geometry">
            <mxPoint x="298" y="740" as="targetPoint" />
          </mxGeometry>
        </mxCell>
        <mxCell id="jzE8oIi-crpwVp-MOxEN-9" style="edgeStyle=none;rounded=0;orthogonalLoop=1;jettySize=auto;html=1;exitX=0;exitY=1;exitDx=0;exitDy=0;fontSize=9;endArrow=oval;endFill=0;fontColor=#000000;entryX=1;entryY=0.75;entryDx=0;entryDy=0;" parent="1" source="jzE8oIi-crpwVp-MOxEN-10" target="jzE8oIi-crpwVp-MOxEN-43" edge="1">
          <mxGeometry relative="1" as="geometry">
            <mxPoint x="298" y="790" as="targetPoint" />
          </mxGeometry>
        </mxCell>
        <mxCell id="jzE8oIi-crpwVp-MOxEN-10" value="Contatti" style="ellipse;whiteSpace=wrap;html=1;align=center;fontSize=9;fillColor=none;gradientColor=#ffffff;fontColor=#000000;" parent="1" vertex="1">
          <mxGeometry x="306" y="750" width="80" height="30" as="geometry" />
        </mxCell>
        <mxCell id="jzE8oIi-crpwVp-MOxEN-12" value="&lt;font style=&quot;font-size: 9px&quot;&gt;#Acquisti&lt;/font&gt;" style="text;html=1;strokeColor=none;fillColor=none;align=center;verticalAlign=middle;whiteSpace=wrap;rounded=0;fontColor=#000000;" parent="1" vertex="1">
          <mxGeometry x="442.02" y="625" width="43.95" height="25" as="geometry" />
        </mxCell>
        <mxCell id="jzE8oIi-crpwVp-MOxEN-26" style="edgeStyle=none;rounded=0;orthogonalLoop=1;jettySize=auto;html=1;exitX=0;exitY=0.5;exitDx=0;exitDy=0;fontSize=9;endArrow=none;endFill=0;fontColor=#000000;entryX=1;entryY=0.5;entryDx=0;entryDy=0;" parent="1" source="jzE8oIi-crpwVp-MOxEN-30" target="gx2fqg2UMWbFpVax5CwM-10" edge="1">
          <mxGeometry relative="1" as="geometry">
            <mxPoint x="1260" y="735" as="targetPoint" />
            <mxPoint x="1270.5" y="785" as="sourcePoint" />
          </mxGeometry>
        </mxCell>
        <mxCell id="jzE8oIi-crpwVp-MOxEN-27" style="edgeStyle=none;rounded=0;orthogonalLoop=1;jettySize=auto;html=1;exitX=0.5;exitY=1;exitDx=0;exitDy=0;fontSize=9;endArrow=oval;endFill=1;fontColor=#000000;entryX=0;entryY=0.5;entryDx=0;entryDy=0;" parent="1" source="jzE8oIi-crpwVp-MOxEN-30" target="jzE8oIi-crpwVp-MOxEN-41" edge="1">
          <mxGeometry relative="1" as="geometry">
            <mxPoint x="1370" y="750" as="targetPoint" />
          </mxGeometry>
        </mxCell>
        <mxCell id="jzE8oIi-crpwVp-MOxEN-28" style="edgeStyle=none;rounded=0;orthogonalLoop=1;jettySize=auto;html=1;exitX=1;exitY=0.5;exitDx=0;exitDy=0;fontSize=9;endArrow=oval;endFill=0;fontColor=#000000;entryX=0;entryY=0.5;entryDx=0;entryDy=0;" parent="1" source="jzE8oIi-crpwVp-MOxEN-30" target="jzE8oIi-crpwVp-MOxEN-40" edge="1">
          <mxGeometry relative="1" as="geometry">
            <mxPoint x="1410" y="710" as="targetPoint" />
          </mxGeometry>
        </mxCell>
        <mxCell id="jzE8oIi-crpwVp-MOxEN-29" style="edgeStyle=none;rounded=0;orthogonalLoop=1;jettySize=auto;html=1;exitX=0.5;exitY=0;exitDx=0;exitDy=0;fontSize=9;endArrow=oval;endFill=0;fontColor=#000000;entryX=0;entryY=0.5;entryDx=0;entryDy=0;" parent="1" source="jzE8oIi-crpwVp-MOxEN-30" target="jzE8oIi-crpwVp-MOxEN-39" edge="1">
          <mxGeometry relative="1" as="geometry">
            <mxPoint x="1370" y="660" as="targetPoint" />
          </mxGeometry>
        </mxCell>
        <mxCell id="jzE8oIi-crpwVp-MOxEN-30" value="Anagrafica" style="ellipse;whiteSpace=wrap;html=1;align=center;fontSize=9;gradientColor=#ffffff;fillColor=none;fontColor=#000000;" parent="1" vertex="1">
          <mxGeometry x="1280" y="695" width="80" height="30" as="geometry" />
        </mxCell>
        <mxCell id="jzE8oIi-crpwVp-MOxEN-31" value="DataPrimoImpiego" style="text;html=1;strokeColor=none;fillColor=none;align=center;verticalAlign=middle;whiteSpace=wrap;rounded=0;fontSize=9;fontColor=#000000;" parent="1" vertex="1">
          <mxGeometry x="1110" y="635" width="41.94" height="25" as="geometry" />
        </mxCell>
        <mxCell id="jzE8oIi-crpwVp-MOxEN-32" value="Società" style="text;html=1;strokeColor=none;fillColor=none;align=center;verticalAlign=middle;whiteSpace=wrap;rounded=0;fontSize=9;fontColor=#000000;" parent="1" vertex="1">
          <mxGeometry x="1190" y="635" width="30" height="25" as="geometry" />
        </mxCell>
        <mxCell id="jzE8oIi-crpwVp-MOxEN-33" value="Targa" style="text;html=1;strokeColor=none;fillColor=none;align=center;verticalAlign=middle;whiteSpace=wrap;rounded=0;fontSize=9;fontColor=#000000;" parent="1" vertex="1">
          <mxGeometry x="1260" y="645" width="30" height="25" as="geometry" />
        </mxCell>
        <mxCell id="jzE8oIi-crpwVp-MOxEN-34" value="Nome" style="text;html=1;strokeColor=none;fillColor=none;align=center;verticalAlign=middle;whiteSpace=wrap;rounded=0;fontSize=9;fontColor=#000000;" parent="1" vertex="1">
          <mxGeometry x="308.5" y="615" width="36.5" height="20" as="geometry" />
        </mxCell>
        <mxCell id="jzE8oIi-crpwVp-MOxEN-37" value="Cognome" style="text;html=1;strokeColor=none;fillColor=none;align=center;verticalAlign=middle;whiteSpace=wrap;rounded=0;fontSize=9;fontColor=#000000;" parent="1" vertex="1">
          <mxGeometry x="237.5" y="625" width="45" height="20" as="geometry" />
        </mxCell>
        <mxCell id="jzE8oIi-crpwVp-MOxEN-38" value="CF" style="text;html=1;strokeColor=none;fillColor=none;align=center;verticalAlign=middle;whiteSpace=wrap;rounded=0;fontSize=9;fontColor=#000000;" parent="1" vertex="1">
          <mxGeometry x="207.5" y="655" width="30" height="20" as="geometry" />
        </mxCell>
        <mxCell id="jzE8oIi-crpwVp-MOxEN-39" value="Nome" style="text;html=1;strokeColor=none;fillColor=none;align=center;verticalAlign=middle;whiteSpace=wrap;rounded=0;fontSize=9;fontColor=#000000;" parent="1" vertex="1">
          <mxGeometry x="1370" y="655" width="36.5" height="20" as="geometry" />
        </mxCell>
        <mxCell id="jzE8oIi-crpwVp-MOxEN-40" value="Cognome" style="text;html=1;strokeColor=none;fillColor=none;align=center;verticalAlign=middle;whiteSpace=wrap;rounded=0;fontSize=9;fontColor=#000000;" parent="1" vertex="1">
          <mxGeometry x="1390" y="700" width="50" height="20" as="geometry" />
        </mxCell>
        <mxCell id="jzE8oIi-crpwVp-MOxEN-41" value="CF" style="text;html=1;strokeColor=none;fillColor=none;align=center;verticalAlign=middle;whiteSpace=wrap;rounded=0;fontSize=9;fontColor=#000000;" parent="1" vertex="1">
          <mxGeometry x="1370" y="740" width="30" height="20" as="geometry" />
        </mxCell>
        <mxCell id="jzE8oIi-crpwVp-MOxEN-42" value="Telefono" style="text;html=1;strokeColor=none;fillColor=none;align=center;verticalAlign=middle;whiteSpace=wrap;rounded=0;fontSize=9;fontColor=#000000;" parent="1" vertex="1">
          <mxGeometry x="237.5" y="720" width="40" height="25" as="geometry" />
        </mxCell>
        <mxCell id="jzE8oIi-crpwVp-MOxEN-43" value="E-mail" style="text;html=1;strokeColor=none;fillColor=none;align=center;verticalAlign=middle;whiteSpace=wrap;rounded=0;fontSize=9;fontColor=#000000;" parent="1" vertex="1">
          <mxGeometry x="240" y="780" width="40" height="20" as="geometry" />
        </mxCell>
        <mxCell id="jzE8oIi-crpwVp-MOxEN-44" value="Telefono" style="text;html=1;strokeColor=none;fillColor=none;align=center;verticalAlign=middle;whiteSpace=wrap;rounded=0;fontSize=9;fontColor=#000000;" parent="1" vertex="1">
          <mxGeometry x="1360" y="770" width="50" height="25" as="geometry" />
        </mxCell>
        <mxCell id="jzE8oIi-crpwVp-MOxEN-45" value="E-mail" style="text;html=1;strokeColor=none;fillColor=none;align=center;verticalAlign=middle;whiteSpace=wrap;rounded=0;fontSize=9;fontColor=#000000;" parent="1" vertex="1">
          <mxGeometry x="1310" y="810" width="40" height="20" as="geometry" />
        </mxCell>
        <mxCell id="jzE8oIi-crpwVp-MOxEN-48" style="edgeStyle=none;rounded=0;orthogonalLoop=1;jettySize=auto;html=1;fontSize=9;endArrow=none;endFill=0;fontColor=#000000;entryX=0;entryY=0;entryDx=0;entryDy=0;exitX=1;exitY=1;exitDx=0;exitDy=0;" parent="1" source="gx2fqg2UMWbFpVax5CwM-10" target="jzE8oIi-crpwVp-MOxEN-51" edge="1">
          <mxGeometry relative="1" as="geometry">
            <mxPoint x="1339.5" y="820" as="targetPoint" />
            <mxPoint x="1270" y="800" as="sourcePoint" />
          </mxGeometry>
        </mxCell>
        <mxCell id="jzE8oIi-crpwVp-MOxEN-49" style="edgeStyle=none;rounded=0;orthogonalLoop=1;jettySize=auto;html=1;exitX=1;exitY=0.5;exitDx=0;exitDy=0;fontSize=9;endArrow=oval;endFill=0;fontColor=#000000;entryX=0;entryY=0.5;entryDx=0;entryDy=0;" parent="1" source="jzE8oIi-crpwVp-MOxEN-51" target="jzE8oIi-crpwVp-MOxEN-44" edge="1">
          <mxGeometry relative="1" as="geometry">
            <mxPoint x="1359.5" y="810" as="targetPoint" />
          </mxGeometry>
        </mxCell>
        <mxCell id="jzE8oIi-crpwVp-MOxEN-50" style="edgeStyle=none;rounded=0;orthogonalLoop=1;jettySize=auto;html=1;exitX=0.5;exitY=1;exitDx=0;exitDy=0;fontSize=9;endArrow=oval;endFill=0;fontColor=#000000;entryX=0;entryY=0;entryDx=0;entryDy=0;" parent="1" source="jzE8oIi-crpwVp-MOxEN-51" target="jzE8oIi-crpwVp-MOxEN-45" edge="1">
          <mxGeometry relative="1" as="geometry">
            <mxPoint x="1309.5" y="820" as="targetPoint" />
          </mxGeometry>
        </mxCell>
        <mxCell id="jzE8oIi-crpwVp-MOxEN-51" value="Contatti" style="ellipse;whiteSpace=wrap;html=1;align=center;fontSize=9;fillColor=none;gradientColor=#ffffff;fontColor=#000000;" parent="1" vertex="1">
          <mxGeometry x="1247" y="760" width="80" height="30" as="geometry" />
        </mxCell>
        <mxCell id="jzE8oIi-crpwVp-MOxEN-52" value="(1,N)" style="text;html=1;align=center;verticalAlign=middle;whiteSpace=wrap;rounded=0;fontColor=#FF0000;" parent="1" vertex="1">
          <mxGeometry x="940" y="375" width="40" height="10" as="geometry" />
        </mxCell>
        <mxCell id="jzE8oIi-crpwVp-MOxEN-53" value="(1,N)" style="text;html=1;align=center;verticalAlign=middle;whiteSpace=wrap;rounded=0;fontColor=#FF0000;" parent="1" vertex="1">
          <mxGeometry x="1110" y="695" width="40" height="10" as="geometry" />
        </mxCell>
        <mxCell id="jzE8oIi-crpwVp-MOxEN-54" value="(1,N)" style="text;html=1;align=center;verticalAlign=middle;whiteSpace=wrap;rounded=0;fontColor=#FF0000;" parent="1" vertex="1">
          <mxGeometry x="793" y="900" width="40" height="20" as="geometry" />
        </mxCell>
        <mxCell id="jzE8oIi-crpwVp-MOxEN-56" value="(1,N)" style="text;html=1;align=center;verticalAlign=middle;whiteSpace=wrap;rounded=0;fontColor=#FF0000;" parent="1" vertex="1">
          <mxGeometry x="514" y="695" width="40" height="10" as="geometry" />
        </mxCell>
        <mxCell id="jzE8oIi-crpwVp-MOxEN-58" value="(0,N)" style="text;html=1;align=center;verticalAlign=middle;whiteSpace=wrap;rounded=0;fontColor=#FF0000;" parent="1" vertex="1">
          <mxGeometry x="770" y="620" width="40" height="10" as="geometry" />
        </mxCell>
        <mxCell id="jzE8oIi-crpwVp-MOxEN-59" value="(1,N)" style="text;html=1;align=center;verticalAlign=middle;whiteSpace=wrap;rounded=0;fontColor=#FF0000;" parent="1" vertex="1">
          <mxGeometry x="694" y="370" width="40" height="20" as="geometry" />
        </mxCell>
        <mxCell id="jzE8oIi-crpwVp-MOxEN-60" value="(1,N)" style="text;html=1;align=center;verticalAlign=middle;whiteSpace=wrap;rounded=0;fontColor=#FF0000;" parent="1" vertex="1">
          <mxGeometry x="729" y="222.5" width="40" height="10" as="geometry" />
        </mxCell>
        <mxCell id="9aJF9EeRNq_PgOef32kS-4" value="(1,1)" style="text;html=1;strokeColor=none;fillColor=none;align=center;verticalAlign=middle;whiteSpace=wrap;rounded=0;fontColor=#FF0000;" parent="1" vertex="1">
          <mxGeometry x="738" y="690" width="33" height="20" as="geometry" />
        </mxCell>
        <mxCell id="9aJF9EeRNq_PgOef32kS-5" value="(1,1)" style="text;html=1;strokeColor=none;fillColor=none;align=center;verticalAlign=middle;whiteSpace=wrap;rounded=0;fontColor=#FF0000;" parent="1" vertex="1">
          <mxGeometry x="852" y="615" width="38" height="20" as="geometry" />
        </mxCell>
        <mxCell id="9aJF9EeRNq_PgOef32kS-6" value="(1,1)" style="text;html=1;strokeColor=none;fillColor=none;align=center;verticalAlign=middle;whiteSpace=wrap;rounded=0;fontColor=#FF0000;" parent="1" vertex="1">
          <mxGeometry x="800" y="760" width="33" height="20" as="geometry" />
        </mxCell>
        <mxCell id="9aJF9EeRNq_PgOef32kS-7" value="(1,1)" style="text;html=1;strokeColor=none;fillColor=none;align=center;verticalAlign=middle;whiteSpace=wrap;rounded=0;fontColor=#FF0000;" parent="1" vertex="1">
          <mxGeometry x="941.5" y="430" width="30.44" height="20" as="geometry" />
        </mxCell>
        <mxCell id="9aJF9EeRNq_PgOef32kS-8" value="(1,1)" style="text;html=1;strokeColor=none;fillColor=none;align=center;verticalAlign=middle;whiteSpace=wrap;rounded=0;fontColor=#FF0000;" parent="1" vertex="1">
          <mxGeometry x="699" y="430" width="30" height="20" as="geometry" />
        </mxCell>
        <mxCell id="9aJF9EeRNq_PgOef32kS-9" value="(1,1)" style="text;html=1;strokeColor=none;fillColor=none;align=center;verticalAlign=middle;whiteSpace=wrap;rounded=0;fontColor=#FF0000;" parent="1" vertex="1">
          <mxGeometry x="891.44" y="687.5" width="38" height="25" as="geometry" />
        </mxCell>
        <mxCell id="9aJF9EeRNq_PgOef32kS-11" value="M" style="text;html=1;strokeColor=none;fillColor=none;align=center;verticalAlign=middle;whiteSpace=wrap;rounded=0;fontColor=#FF0000;" parent="1" vertex="1">
          <mxGeometry x="699" y="267.5" width="10" height="10" as="geometry" />
        </mxCell>
        <mxCell id="9aJF9EeRNq_PgOef32kS-12" value="N" style="text;html=1;strokeColor=none;fillColor=none;align=center;verticalAlign=middle;whiteSpace=wrap;rounded=0;fontColor=#FF0000;" parent="1" vertex="1">
          <mxGeometry x="755.5" y="267.5" width="10" height="10" as="geometry" />
        </mxCell>
        <mxCell id="9aJF9EeRNq_PgOef32kS-13" value="M" style="text;html=1;strokeColor=none;fillColor=none;align=center;verticalAlign=middle;whiteSpace=wrap;rounded=0;fontColor=#FF0000;" parent="1" vertex="1">
          <mxGeometry x="905.44" y="267.5" width="10" height="10" as="geometry" />
        </mxCell>
        <mxCell id="9aJF9EeRNq_PgOef32kS-14" value="N" style="text;html=1;strokeColor=none;fillColor=none;align=center;verticalAlign=middle;whiteSpace=wrap;rounded=0;fontColor=#FF0000;" parent="1" vertex="1">
          <mxGeometry x="961.94" y="267.5" width="10" height="10" as="geometry" />
        </mxCell>
        <mxCell id="9aJF9EeRNq_PgOef32kS-19" value="1" style="text;html=1;strokeColor=none;fillColor=none;align=center;verticalAlign=middle;whiteSpace=wrap;rounded=0;fontColor=#FF0000;" parent="1" vertex="1">
          <mxGeometry x="907.75" y="480" width="10" height="10" as="geometry" />
        </mxCell>
        <mxCell id="9aJF9EeRNq_PgOef32kS-20" value="1" style="text;html=1;strokeColor=none;fillColor=none;align=center;verticalAlign=middle;whiteSpace=wrap;rounded=0;fontColor=#FF0000;" parent="1" vertex="1">
          <mxGeometry x="964.25" y="480" width="10" height="10" as="geometry" />
        </mxCell>
        <mxCell id="9aJF9EeRNq_PgOef32kS-21" value="N" style="text;html=1;strokeColor=none;fillColor=none;align=center;verticalAlign=middle;whiteSpace=wrap;rounded=0;fontColor=#FF0000;" parent="1" vertex="1">
          <mxGeometry x="697.25" y="480" width="10" height="10" as="geometry" />
        </mxCell>
        <mxCell id="9aJF9EeRNq_PgOef32kS-22" value="1" style="text;html=1;strokeColor=none;fillColor=none;align=center;verticalAlign=middle;whiteSpace=wrap;rounded=0;fontColor=#FF0000;" parent="1" vertex="1">
          <mxGeometry x="753.75" y="480" width="10" height="10" as="geometry" />
        </mxCell>
        <mxCell id="9aJF9EeRNq_PgOef32kS-25" value="1" style="text;html=1;strokeColor=none;fillColor=none;align=center;verticalAlign=middle;whiteSpace=wrap;rounded=0;fontColor=#FF0000;" parent="1" vertex="1">
          <mxGeometry x="613" y="685" width="10" height="10" as="geometry" />
        </mxCell>
        <mxCell id="9aJF9EeRNq_PgOef32kS-26" value="N" style="text;html=1;strokeColor=none;fillColor=none;align=center;verticalAlign=middle;whiteSpace=wrap;rounded=0;fontColor=#FF0000;" parent="1" vertex="1">
          <mxGeometry x="699" y="685" width="10" height="10" as="geometry" />
        </mxCell>
        <mxCell id="9aJF9EeRNq_PgOef32kS-27" value="N" style="text;html=1;strokeColor=none;fillColor=none;align=center;verticalAlign=middle;whiteSpace=wrap;rounded=0;fontColor=#FF0000;" parent="1" vertex="1">
          <mxGeometry x="955" y="685" width="10" height="10" as="geometry" />
        </mxCell>
        <mxCell id="9aJF9EeRNq_PgOef32kS-28" value="1" style="text;html=1;strokeColor=none;fillColor=none;align=center;verticalAlign=middle;whiteSpace=wrap;rounded=0;fontColor=#FF0000;" parent="1" vertex="1">
          <mxGeometry x="1051.5" y="685" width="10" height="10" as="geometry" />
        </mxCell>
        <mxCell id="cwDBM6tycQYc7HeiNDPo-1" value="(0,1)" style="text;html=1;strokeColor=none;fillColor=none;align=center;verticalAlign=middle;whiteSpace=wrap;rounded=0;fontColor=#FF0000;" parent="1" vertex="1">
          <mxGeometry x="778.31" y="285" width="28.44" height="15" as="geometry" />
        </mxCell>
        <mxCell id="cwDBM6tycQYc7HeiNDPo-2" value="" style="endArrow=oval;html=1;rounded=0;fontSize=11;endFill=1;fontColor=#FF0000;" parent="1" edge="1">
          <mxGeometry width="50" height="50" relative="1" as="geometry">
            <mxPoint x="719.5" y="450" as="sourcePoint" />
            <mxPoint x="789.5" y="450" as="targetPoint" />
          </mxGeometry>
        </mxCell>
        <mxCell id="cwDBM6tycQYc7HeiNDPo-3" value="P,E" style="text;html=1;strokeColor=none;fillColor=none;align=center;verticalAlign=middle;whiteSpace=wrap;rounded=0;fontColor=#FF0000;" parent="1" vertex="1">
          <mxGeometry x="623" y="384.99" width="30" height="15" as="geometry" />
        </mxCell>
        <mxCell id="cwDBM6tycQYc7HeiNDPo-4" value="T,E" style="text;html=1;strokeColor=none;fillColor=none;align=center;verticalAlign=middle;whiteSpace=wrap;rounded=0;fontColor=#FF0000;" parent="1" vertex="1">
          <mxGeometry x="740" y="140" width="30" height="15" as="geometry" />
        </mxCell>
        <mxCell id="cwDBM6tycQYc7HeiNDPo-5" value="T,E" style="text;html=1;strokeColor=none;fillColor=none;align=center;verticalAlign=middle;whiteSpace=wrap;rounded=0;fontColor=#FF0000;" parent="1" vertex="1">
          <mxGeometry x="838.31" y="1005" width="30" height="15" as="geometry" />
        </mxCell>
        <mxCell id="rHscnQnr_pqCsqy7i4I7-6" value="Matricola" style="text;html=1;strokeColor=none;fillColor=none;align=center;verticalAlign=middle;whiteSpace=wrap;rounded=0;fontSize=9;" parent="1" vertex="1">
          <mxGeometry x="813.25" y="222.5" width="50" height="15" as="geometry" />
        </mxCell>
        <mxCell id="L8EaPlabEkE5flBV4axa-7" style="edgeStyle=orthogonalEdgeStyle;rounded=0;orthogonalLoop=1;jettySize=auto;html=1;exitX=1;exitY=0.5;exitDx=0;exitDy=0;entryX=0.5;entryY=1;entryDx=0;entryDy=0;endArrow=none;endFill=0;" parent="1" source="L8EaPlabEkE5flBV4axa-4" target="FtTrVJw0tq06EMOVsZJ_-161" edge="1">
          <mxGeometry relative="1" as="geometry" />
        </mxCell>
        <mxCell id="L8EaPlabEkE5flBV4axa-4" value="Associazione" style="shape=rhombus;perimeter=rhombusPerimeter;whiteSpace=wrap;html=1;align=center;" parent="1" vertex="1">
          <mxGeometry x="770.5" y="1150" width="120" height="60" as="geometry" />
        </mxCell>
        <mxCell id="L8EaPlabEkE5flBV4axa-8" value="N" style="text;html=1;strokeColor=none;fillColor=none;align=center;verticalAlign=middle;whiteSpace=wrap;rounded=0;fontColor=#FF0000;" parent="1" vertex="1">
          <mxGeometry x="796.75" y="800" width="10" height="10" as="geometry" />
        </mxCell>
        <mxCell id="L8EaPlabEkE5flBV4axa-9" value="1" style="text;html=1;strokeColor=none;fillColor=none;align=center;verticalAlign=middle;whiteSpace=wrap;rounded=0;fontColor=#FF0000;" parent="1" vertex="1">
          <mxGeometry x="853.25" y="800" width="10" height="10" as="geometry" />
        </mxCell>
        <mxCell id="L8EaPlabEkE5flBV4axa-10" value="M" style="text;html=1;strokeColor=none;fillColor=none;align=center;verticalAlign=middle;whiteSpace=wrap;rounded=0;fontColor=#FF0000;" parent="1" vertex="1">
          <mxGeometry x="797.76" y="1150" width="10" height="10" as="geometry" />
        </mxCell>
        <mxCell id="L8EaPlabEkE5flBV4axa-11" value="N" style="text;html=1;strokeColor=none;fillColor=none;align=center;verticalAlign=middle;whiteSpace=wrap;rounded=0;fontColor=#FF0000;" parent="1" vertex="1">
          <mxGeometry x="854.26" y="1150" width="10" height="10" as="geometry" />
        </mxCell>
        <mxCell id="L8EaPlabEkE5flBV4axa-12" value="(1,N)" style="text;html=1;align=center;verticalAlign=middle;whiteSpace=wrap;rounded=0;fontColor=#FF0000;" parent="1" vertex="1">
          <mxGeometry x="925" y="1110" width="40" height="20" as="geometry" />
        </mxCell>
        <mxCell id="L8EaPlabEkE5flBV4axa-13" value="(0,N)" style="text;html=1;align=center;verticalAlign=middle;whiteSpace=wrap;rounded=0;fontColor=#FF0000;" parent="1" vertex="1">
          <mxGeometry x="697.25" y="1110" width="40" height="20" as="geometry" />
        </mxCell>
        <mxCell id="PqE2YzjYnUWBGZX2AW_H-2" value="&lt;font style=&quot;font-size: 9px&quot;&gt;#Coinvolgimenti&lt;/font&gt;" style="text;html=1;strokeColor=none;fillColor=none;align=center;verticalAlign=middle;whiteSpace=wrap;rounded=0;" vertex="1" parent="1">
          <mxGeometry x="640" y="135" width="50" height="25" as="geometry" />
        </mxCell>
      </root>
    </mxGraphModel>
  </diagram>
</mxfile>
